<svg width="373" height="373" viewBox="0 0 373 373" fill="none" xmlns="http://www.w3.org/2000/svg">
<rect width="373" height="373" rx="40" fill="white"/>
<path fill-rule="evenodd" clip-rule="evenodd" d="M182.129 329.896C175.06 329.908 96.6851 335.938 58.2666 254.283C46.288 228.825 27.4113 147.543 100.77 110.337C123.593 98.7608 111.698 81.0893 145.583 55.5773C189.851 22.2492 264.02 59.4794 245.372 116.599C240.632 131.122 226.105 149.551 215.857 148.273C206.665 147.126 211.936 160.568 201.591 159.247C195.279 158.442 186.241 145.656 198.735 151.344C207.754 155.446 204.204 132.222 215.45 139.1C228.06 146.815 242.704 94.6996 225.712 89.5418C217.484 87.0448 211.389 98.4933 182.066 93.0269C176.602 92.0074 158.15 84.9215 146.73 107.165C138.249 123.687 142.489 133.169 110.674 153.711C31.1544 205.055 91.0984 329.168 189.519 314.69C247.506 306.16 272.964 250.798 270.482 244.385C269.279 241.28 261.465 242.678 269.118 235.289C269.226 235.185 269.308 235.05 269.409 234.927C298.264 200.003 251.06 146.615 217.448 178.047C206.669 188.126 211.102 194.795 208.829 197.834C208.152 198.74 195.13 207.55 203.756 224.99C213.722 245.137 234.628 236.964 234.558 241.856C234.481 247.243 201.218 253.43 172.734 227.111C153.276 209.133 143.315 180.799 122.069 176.287C117.822 175.383 116.027 176.649 115.834 172.308C115.759 170.652 133.872 162.742 155.067 189.194C160.449 195.909 171.975 216.395 189.2 227.798C199.393 234.546 191.464 221.218 191.078 212.953C190.528 201.199 195.985 202.375 197.704 191.242C202.379 160.97 249.879 142.47 277.864 172.534C310.609 207.714 293.362 300.376 203.936 326.346C200.728 327.276 200.815 327.069 182.129 329.896Z" fill="#E75E77"/>
<path fill-rule="evenodd" clip-rule="evenodd" d="M201.629 130.48C201.318 130.345 196.654 129.502 193.054 124.139C190.696 120.63 191.089 115.585 192.01 114.841C197.221 110.63 195.338 122.305 204.215 124.816C212.21 127.08 207.481 129.738 207.057 129.941C204.242 131.293 201.656 130.478 201.629 130.48Z" fill="#E75E77"/>
<path fill-rule="evenodd" clip-rule="evenodd" d="M233.603 206.89C233.391 206.88 230.482 207.417 227.196 205.081C225.044 203.553 224.16 200.521 224.533 199.882C226.646 196.273 228.125 203.506 233.862 203.012C239.03 202.568 236.856 205.164 236.653 205.376C235.308 206.787 233.618 206.883 233.603 206.89Z" fill="#E75E77"/>
<path fill-rule="evenodd" clip-rule="evenodd" d="M215.59 223.698C215.379 223.688 212.47 224.226 209.183 221.89C207.032 220.361 206.147 217.329 206.52 216.691C208.633 213.082 210.112 220.314 215.85 219.82C221.017 219.376 218.843 221.973 218.64 222.185C217.295 223.596 215.605 223.691 215.59 223.698Z" fill="#E75E77"/>
<path fill-rule="evenodd" clip-rule="evenodd" d="M158.058 275.023C155.84 273.895 141.642 266.679 132.006 258.034C118.947 246.322 104.949 224.744 107.904 220.999C113.288 214.166 118.022 238.901 152.382 259.848C193.796 285.093 228.447 265.385 230.219 265.529C235.194 265.939 231.908 272.015 217.768 277.626C188.809 289.118 162.84 276.802 158.058 275.023Z" fill="#E75E77"/>
<path d="M290.869 101.687C283.869 97.2885 274.386 99.7822 269.69 107.257C267.435 110.845 266.608 115.124 267.39 119.156L276.559 146.677C276.761 147.716 277.756 148.342 278.78 148.073L307.073 144.092C311.046 143.047 314.542 140.445 316.797 136.857C321.494 129.383 319.626 119.757 312.626 115.359C309.266 113.247 305.148 112.648 301.176 113.692L297.969 114.535L297.338 111.281C296.556 107.248 294.229 103.799 290.869 101.687Z" fill="#7EA99B"/>
<path fill-rule="evenodd" clip-rule="evenodd" d="M211.923 202.926C210.867 202.731 208.299 204.423 208.11 205.494C207.92 206.563 209.729 209.149 210.787 209.344C211.845 209.54 214.265 207.736 214.455 206.667C214.644 205.598 212.981 203.122 211.923 202.926Z" fill="#E75E77"/>
<path fill-rule="evenodd" clip-rule="evenodd" d="M172.011 165.64C177.801 166.9 180.249 165.454 187.494 164.186C192.346 163.338 195.164 166.775 189.403 169.662C164.318 182.231 143.737 152.143 148.261 143.62C149.592 141.111 153.002 148.766 156.403 154.088C160.814 160.99 167.032 164.555 172.011 165.64Z" fill="#E75E77"/>
</svg>
