<svg width="61" height="63" viewBox="0 0 61 63" fill="none" xmlns="http://www.w3.org/2000/svg">
<path fill-rule="evenodd" clip-rule="evenodd" d="M29.5932 62.7678C28.0466 62.7705 10.8996 64.0898 2.49426 46.2251C-0.126458 40.6551 -4.25633 22.8722 11.7933 14.7321C16.7864 12.1995 14.1842 8.33326 21.5976 2.7517C31.2827 -4.53992 47.5095 3.60541 43.4297 16.1021C42.3925 19.2797 39.2144 23.3115 36.9723 23.032C34.9612 22.781 36.1144 25.7218 33.8512 25.4328C32.4702 25.2567 30.4928 22.4593 33.2263 23.7038C35.1995 24.6012 34.4228 19.5201 36.8832 21.025C39.6421 22.713 42.846 11.311 39.1285 10.1825C37.3282 9.63624 35.9947 12.141 29.5794 10.945C28.384 10.722 24.347 9.17168 21.8486 14.0382C19.993 17.6529 20.9205 19.7273 13.9601 24.2216C-3.43742 35.4548 9.67727 62.6086 31.2099 59.441C43.8964 57.5749 49.4664 45.4626 48.9232 44.0594C48.6601 43.3803 46.9505 43.6861 48.6248 42.0694C48.6485 42.0467 48.6664 42.0172 48.6886 41.9903C55.0015 34.3496 44.6742 22.6692 37.3203 29.5458C34.9622 31.751 35.9319 33.2101 35.4347 33.875C35.2865 34.0733 32.4375 36.0006 34.3247 39.8162C36.5051 44.224 41.079 42.4359 41.0637 43.5063C41.0468 44.6848 33.7694 46.0384 27.5377 40.2802C23.2807 36.347 21.1014 30.148 16.4532 29.1609C15.524 28.9631 15.1312 29.24 15.089 28.2903C15.0727 27.928 19.0354 26.1974 23.6726 31.9846C24.85 33.4537 27.3716 37.9358 31.1403 40.4305C33.3703 41.907 31.6354 38.991 31.5511 37.1828C31.4308 34.6111 32.6247 34.8685 33.0006 32.4328C34.0236 25.8098 44.4158 21.7622 50.5384 28.3399C57.7024 36.0365 53.929 56.3094 34.3643 61.9911C33.6624 62.1946 33.6814 62.1493 29.5932 62.7678Z" fill="#E75E77"/>
<path fill-rule="evenodd" clip-rule="evenodd" d="M33.8601 19.1397C33.7921 19.1101 32.7717 18.9256 31.9839 17.7523C31.4682 16.9846 31.5542 15.8809 31.7556 15.718C32.8957 14.7968 32.4838 17.351 34.4259 17.9005C36.175 18.3956 35.1404 18.9773 35.0476 19.0216C34.4317 19.3174 33.8659 19.1392 33.8601 19.1397Z" fill="#E75E77"/>
<path fill-rule="evenodd" clip-rule="evenodd" d="M40.8577 35.833C40.8114 35.8307 40.1749 35.9483 39.4559 35.4372C38.9852 35.1028 38.7917 34.4395 38.8733 34.2998C39.3355 33.5102 39.6591 35.0925 40.9144 34.9845C42.0449 34.8874 41.5693 35.4554 41.5249 35.5018C41.2306 35.8105 40.8609 35.8314 40.8577 35.833Z" fill="#E75E77"/>
<path fill-rule="evenodd" clip-rule="evenodd" d="M36.9144 39.5361C36.8682 39.5339 36.2317 39.6514 35.5126 39.1404C35.042 38.806 34.8485 38.1426 34.9301 38.003C35.3923 37.2134 35.7159 38.7957 36.9711 38.6876C38.1017 38.5905 37.6261 39.1585 37.5817 39.2049C37.2874 39.5136 36.9177 39.5345 36.9144 39.5361Z" fill="#E75E77"/>
<path fill-rule="evenodd" clip-rule="evenodd" d="M24.3274 50.7606C23.8423 50.5138 20.7359 48.9351 18.6277 47.0436C15.7708 44.4814 12.7082 39.7604 13.3546 38.941C14.5326 37.4461 15.5683 42.8578 23.0856 47.4407C32.1463 52.9637 39.7274 48.6519 40.115 48.6835C41.2034 48.7732 40.4846 50.1025 37.3909 51.3301C31.0553 53.8443 25.3736 51.1498 24.3274 50.7606Z" fill="#E75E77"/>
<path d="M53.384 12.8362C51.8525 11.8739 49.7779 12.4195 48.7504 14.0548C48.2571 14.8398 48.0761 15.776 48.2473 16.6582L50.2534 22.6793C50.2974 22.9066 50.5152 23.0434 50.7391 22.9846L56.9293 22.1137C57.7984 21.8851 58.5634 21.3159 59.0566 20.5308C60.0842 18.8955 59.6757 16.7897 58.1442 15.8273C57.409 15.3654 56.5081 15.2342 55.639 15.4628L54.9375 15.6472L54.7994 14.9352C54.6282 14.053 54.1192 13.2982 53.384 12.8362Z" fill="#7EA99B"/>
<path fill-rule="evenodd" clip-rule="evenodd" d="M36.1124 34.9878C35.8812 34.9451 35.3194 35.3154 35.2781 35.5496C35.2365 35.7836 35.6323 36.3493 35.8638 36.392C36.0952 36.435 36.6246 36.0403 36.6662 35.8063C36.7075 35.5724 36.3438 35.0307 36.1124 34.9878Z" fill="#E75E77"/>
<path fill-rule="evenodd" clip-rule="evenodd" d="M27.3802 26.8312C28.6468 27.107 29.1825 26.7906 30.7676 26.5132C31.8291 26.3276 32.4455 27.0796 31.1853 27.7113C25.697 30.4612 21.1944 23.8783 22.1841 22.0137C22.4752 21.4648 23.2213 23.1395 23.9654 24.3038C24.9304 25.814 26.2908 26.5939 27.3802 26.8312Z" fill="#E75E77"/>
</svg>
