<svg width="775" height="227" viewBox="0 0 775 227" fill="none" xmlns="http://www.w3.org/2000/svg">
<path d="M87.0002 28H131.5H150L156.5 50.5L137 80H131.5C129.71 83.4413 128.731 85.3609 127.5 89C125.515 95.2673 125.35 98.4235 131.5 103.5L137 95.5H156.5L171.5 103.5L190.5 123.5L186.5 160.5L166 192.5L150 210L107.5 222.5L78.0002 218.5L41.5002 198.5L14.0002 166C14.3336 149.167 15.5002 115.1 17.5002 113.5C20.0002 111.5 50.0002 72.5 51.5002 69C52.7002 66.2 65.6669 52.5 72.0002 46L87.0002 28Z" fill="#FCF5F4"/>
<path fill-rule="evenodd" clip-rule="evenodd" d="M106.762 226.444C101.182 226.454 39.3218 231.214 8.99843 166.764C-0.456217 146.67 -15.3554 82.5149 42.5463 53.1484C60.5596 44.0115 51.1716 30.0635 77.9166 9.92718C112.857 -16.3784 171.398 13.0071 156.679 58.0907C152.937 69.5542 141.472 84.0996 133.383 83.0913C126.128 82.1858 130.288 92.7952 122.123 91.7527C117.141 91.1173 110.007 81.0254 119.869 85.5149C126.988 88.7527 124.185 70.4217 133.062 75.851C143.015 81.9404 154.573 40.806 141.162 36.735C134.667 34.7642 129.856 43.8003 106.712 39.4858C102.4 38.6811 87.8353 33.0882 78.822 50.6449C72.1277 63.6855 75.474 71.1693 50.363 87.383C-12.401 127.909 34.9122 225.87 112.594 214.442C158.363 207.71 178.457 164.013 176.498 158.951C175.549 156.501 169.381 157.604 175.421 151.772C175.507 151.69 175.571 151.583 175.651 151.486C198.426 123.921 161.169 81.7825 134.639 106.591C126.131 114.547 129.63 119.81 127.836 122.209C127.301 122.925 117.023 129.878 123.832 143.643C131.698 159.545 148.199 153.094 148.143 156.956C148.083 161.207 121.828 166.091 99.3464 145.317C83.9888 131.127 76.1264 108.763 59.3573 105.202C56.0053 104.489 54.5881 105.488 54.4359 102.062C54.377 100.755 68.6731 94.5111 85.4023 115.389C89.6503 120.689 98.7472 136.859 112.343 145.859C120.388 151.186 114.13 140.666 113.825 134.143C113.391 124.865 117.698 125.793 119.055 117.006C122.745 93.1129 160.237 78.5105 182.325 102.24C208.17 130.007 194.557 203.144 123.974 223.642C121.442 224.377 121.511 224.213 106.762 226.444Z" fill="#E75E77"/>
<path fill-rule="evenodd" clip-rule="evenodd" d="M122.153 69.0485C121.908 68.942 118.227 68.2762 115.384 64.0434C113.524 61.2736 113.834 57.292 114.561 56.7042C118.674 53.3808 117.188 62.5958 124.194 64.578C130.504 66.3643 126.772 68.4626 126.437 68.6224C124.215 69.6896 122.174 69.0466 122.153 69.0485Z" fill="#E75E77"/>
<path fill-rule="evenodd" clip-rule="evenodd" d="M147.39 129.355C147.223 129.347 144.926 129.771 142.332 127.927C140.634 126.721 139.936 124.327 140.231 123.824C141.898 120.975 143.066 126.684 147.594 126.294C151.673 125.943 149.957 127.993 149.797 128.16C148.735 129.274 147.401 129.349 147.39 129.355Z" fill="#E75E77"/>
<path fill-rule="evenodd" clip-rule="evenodd" d="M133.173 142.624C133.006 142.616 130.709 143.04 128.115 141.197C126.417 139.99 125.719 137.597 126.014 137.093C127.681 134.245 128.849 139.953 133.377 139.563C137.456 139.213 135.74 141.262 135.58 141.429C134.518 142.543 133.184 142.619 133.173 142.624Z" fill="#E75E77"/>
<path fill-rule="evenodd" clip-rule="evenodd" d="M87.7624 183.134C86.0123 182.243 74.8055 176.548 67.2 169.724C56.8931 160.481 45.8442 143.449 48.1765 140.493C52.4263 135.1 56.1626 154.623 83.2824 171.157C115.97 191.082 143.32 175.526 144.719 175.64C148.645 175.964 146.052 180.76 134.891 185.188C112.034 194.259 91.5367 184.538 87.7624 183.134Z" fill="#E75E77"/>
<path d="M192.59 46.3215C187.065 42.8497 179.581 44.8179 175.874 50.7175C174.094 53.5496 173.441 56.9272 174.059 60.1098L181.296 81.8318C181.455 82.6517 182.241 83.1454 183.048 82.933L205.38 79.7911C208.516 78.9666 211.275 76.913 213.055 74.0809C216.762 68.1812 215.288 60.584 209.763 57.1122C207.111 55.4456 203.861 54.9725 200.725 55.797L198.195 56.4625L197.696 53.8937C197.079 50.711 195.242 47.988 192.59 46.3215Z" fill="#7EA99B"/>
<path fill-rule="evenodd" clip-rule="evenodd" d="M130.278 126.227C129.444 126.073 127.417 127.409 127.268 128.254C127.118 129.098 128.546 131.139 129.381 131.293C130.216 131.448 132.126 130.024 132.276 129.18C132.425 128.336 131.113 126.382 130.278 126.227Z" fill="#E75E77"/>
<path fill-rule="evenodd" clip-rule="evenodd" d="M98.7763 96.7988C103.346 97.7937 105.278 96.6523 110.997 95.6517C114.826 94.982 117.05 97.6948 112.504 99.9738C92.7039 109.894 76.4599 86.1456 80.0306 79.4189C81.0807 77.4386 83.7725 83.4805 86.4567 87.6808C89.938 93.1291 94.8461 95.9427 98.7763 96.7988Z" fill="#E75E77"/>
<path d="M262.679 151H248.215V65.24H266.007L284.439 102.872L292.887 124.76L301.463 102.872L319.895 65.24H337.559V151H323.095V110.68L324.887 82.392L315.031 106.968L300.183 136.536H285.591L270.743 106.968L260.631 82.392L262.679 110.68V151ZM367.878 152.28C357.638 152.28 351.494 146.52 351.494 137.56C351.494 128.728 357.638 123.352 367.75 119.384L388.614 110.552C388.102 104.28 385.286 100.056 376.71 100.056C368.39 100.056 361.862 104.92 358.278 111.448L349.702 101.208C354.566 94.552 364.294 87.384 378.118 87.384C393.606 87.384 402.31 96.216 402.31 111.576V135C402.31 137.816 403.334 138.712 405.638 138.712H409.606V151H400.774C394.118 151 388.87 147.928 388.87 138.968V134.36C386.95 142.552 380.934 152.28 367.878 152.28ZM365.318 135.384C365.318 138.968 367.75 141.144 372.998 141.144C382.47 141.144 388.87 135.512 388.87 127.064V120.408L372.87 127.576C367.494 130.008 365.318 132.184 365.318 135.384ZM441.472 152.408C429.696 152.408 422.912 144.984 422.912 133.976V99.8H413.184V88.664H422.912V81.112L437.248 72.024V88.664H456.32V99.8H437.248V130.52C437.248 137.304 440.448 138.968 444.672 138.968C449.536 138.968 453.12 135 454.912 131.416L459.392 144.216C456.704 148.184 450.56 152.408 441.472 152.408ZM492.592 152.28C474.032 152.28 461.872 139.352 461.872 119.896C461.872 100.312 474.032 87.384 491.568 87.384C510.256 87.384 520.624 99.8 520.624 117.08C520.624 119.384 520.368 122.072 520.112 123.352H475.568C476.336 134.488 482.864 140.504 492.72 140.504C503.6 140.504 508.464 134.872 510.768 129.624L519.6 138.84C514.864 146.008 506.416 152.28 492.592 152.28ZM491.568 98.904C482.736 98.904 476.848 104.024 475.696 114.136H507.696C506.672 104.28 501.04 98.904 491.568 98.904ZM547.53 151H533.194V88.664H547.53V106.328C549.834 96.344 556.106 87.384 567.242 87.384C575.05 87.384 580.81 92.504 580.81 101.72C580.81 107.736 579.146 112.216 577.994 114.136H563.274C565.322 112.088 567.242 107.992 567.242 104.408C567.242 100.952 565.578 98.136 561.354 98.136C554.186 98.136 547.53 106.328 547.53 116.696V151ZM603.655 151H589.319V88.664H603.655V105.688C605.959 95.832 612.359 87.384 624.775 87.384C636.935 87.384 644.359 94.68 644.359 107.608V151H629.895V111.96C629.895 104.28 627.335 99.032 617.735 99.032C607.239 99.032 603.655 105.816 603.655 116.056V151ZM672.378 152.28C662.138 152.28 655.994 146.52 655.994 137.56C655.994 128.728 662.138 123.352 672.25 119.384L693.114 110.552C692.602 104.28 689.786 100.056 681.21 100.056C672.89 100.056 666.362 104.92 662.778 111.448L654.202 101.208C659.066 94.552 668.794 87.384 682.618 87.384C698.106 87.384 706.81 96.216 706.81 111.576V135C706.81 137.816 707.834 138.712 710.138 138.712H714.106V151H705.274C698.618 151 693.37 147.928 693.37 138.968V134.36C691.45 142.552 685.434 152.28 672.378 152.28ZM669.818 135.384C669.818 138.968 672.25 141.144 677.498 141.144C686.97 141.144 693.37 135.512 693.37 127.064V120.408L677.37 127.576C671.994 130.008 669.818 132.184 669.818 135.384ZM739.405 151H725.069V88.664H739.405V106.328C741.709 96.344 747.981 87.384 759.117 87.384C766.925 87.384 772.685 92.504 772.685 101.72C772.685 107.736 771.021 112.216 769.869 114.136H755.149C757.197 112.088 759.117 107.992 759.117 104.408C759.117 100.952 757.453 98.136 753.229 98.136C746.061 98.136 739.405 106.328 739.405 116.696V151Z" fill="#E75E77"/>
</svg>
